<mxfile host="app.diagrams.net" modified="2023-08-21T15:21:20.090Z" agent="Mozilla/5.0 (Windows NT 10.0; Win64; x64; rv:109.0) Gecko/20100101 Firefox/116.0" etag="IFPT_Ebdr5LC7NjtTs96" version="21.6.6" type="github">
  <diagram name="Page-1" id="2cc2dc42-3aac-f2a9-1cec-7a8b7cbee084">
    <mxGraphModel dx="1687" dy="911" grid="1" gridSize="10" guides="1" tooltips="1" connect="1" arrows="1" fold="1" page="1" pageScale="1" pageWidth="1100" pageHeight="850" background="none" math="0" shadow="0">
      <root>
        <mxCell id="0" />
        <mxCell id="1" parent="0" />
        <mxCell id="olosjIy-y9Px-S6xNgTF-2" value="" style="whiteSpace=wrap;html=1;fillColor=none;strokeWidth=2;" vertex="1" parent="1">
          <mxGeometry x="20" y="20" width="1060" height="810" as="geometry" />
        </mxCell>
        <mxCell id="olosjIy-y9Px-S6xNgTF-6" value="Logo" style="ellipse;whiteSpace=wrap;html=1;aspect=fixed;" vertex="1" parent="1">
          <mxGeometry x="65" y="50" width="150" height="150" as="geometry" />
        </mxCell>
        <mxCell id="olosjIy-y9Px-S6xNgTF-8" value="" style="rounded=0;whiteSpace=wrap;html=1;fillColor=none;strokeWidth=2;" vertex="1" parent="1">
          <mxGeometry x="260" y="35" width="800" height="70" as="geometry" />
        </mxCell>
        <mxCell id="olosjIy-y9Px-S6xNgTF-9" value="" style="rounded=0;whiteSpace=wrap;html=1;fillColor=none;strokeWidth=2;" vertex="1" parent="1">
          <mxGeometry x="40" y="35" width="200" height="780" as="geometry" />
        </mxCell>
        <mxCell id="olosjIy-y9Px-S6xNgTF-10" value="&lt;font style=&quot;font-size: 18px;&quot;&gt;Dashboard&lt;/font&gt;" style="text;html=1;strokeColor=none;fillColor=none;align=center;verticalAlign=middle;whiteSpace=wrap;rounded=0;" vertex="1" parent="1">
          <mxGeometry x="270" y="55" width="140" height="30" as="geometry" />
        </mxCell>
        <mxCell id="olosjIy-y9Px-S6xNgTF-11" value="&lt;font style=&quot;font-size: 18px;&quot;&gt;Full Name&lt;br&gt;&lt;/font&gt;" style="text;html=1;strokeColor=none;fillColor=none;align=center;verticalAlign=middle;whiteSpace=wrap;rounded=0;" vertex="1" parent="1">
          <mxGeometry x="895" y="55" width="140" height="30" as="geometry" />
        </mxCell>
        <mxCell id="olosjIy-y9Px-S6xNgTF-12" value="&lt;h1 align=&quot;center&quot;&gt;&lt;font style=&quot;font-size: 27px;&quot;&gt;Welcome to IT Helpdesk&lt;/font&gt; &lt;br&gt;&lt;/h1&gt;&lt;p align=&quot;center&quot;&gt;&lt;font style=&quot;font-size: 14px;&quot;&gt;Website ini merupakan website pengaduan teknis untuk divisi IT Support. Silahkan deskripsikan kendala yang anda hadapi didalam ticket. Terimakasih&lt;/font&gt;&lt;br&gt;&lt;/p&gt;" style="text;html=1;strokeColor=none;fillColor=none;spacing=5;spacingTop=-20;whiteSpace=wrap;overflow=hidden;rounded=0;align=center;" vertex="1" parent="1">
          <mxGeometry x="452.5" y="220" width="415" height="120" as="geometry" />
        </mxCell>
        <mxCell id="olosjIy-y9Px-S6xNgTF-13" value="Create Ticket" style="strokeWidth=1;shadow=0;dashed=0;align=center;html=1;shape=mxgraph.mockup.buttons.button;strokeColor=#666666;fontColor=#ffffff;mainText=;buttonStyle=round;fontSize=17;fontStyle=1;fillColor=#000000;whiteSpace=wrap;" vertex="1" parent="1">
          <mxGeometry x="585" y="375" width="150" height="50" as="geometry" />
        </mxCell>
        <mxCell id="olosjIy-y9Px-S6xNgTF-14" value="Dashboard" style="rounded=0;whiteSpace=wrap;html=1;fillColor=none;" vertex="1" parent="1">
          <mxGeometry x="50" y="280" width="180" height="30" as="geometry" />
        </mxCell>
        <mxCell id="olosjIy-y9Px-S6xNgTF-15" value="Your Ticket" style="rounded=0;whiteSpace=wrap;html=1;fillColor=none;" vertex="1" parent="1">
          <mxGeometry x="50" y="330" width="180" height="30" as="geometry" />
        </mxCell>
      </root>
    </mxGraphModel>
  </diagram>
</mxfile>
